<svg width="50" height="35" viewBox="0 0 50 35" fill="none" xmlns="http://www.w3.org/2000/svg">
<path d="M35.2688 5.48219C28.6499 -1.16073 17.9169 -1.16073 11.298 5.48219L0.479631 16.3395C-0.159877 16.9821 -0.159877 18.0166 0.479631 18.6591L11.298 29.5165C17.9169 36.1594 28.6499 36.1594 35.2688 29.5274C41.8984 22.8953 41.8984 12.1251 35.2688 5.48219ZM32.7108 26.3366C27.8505 31.2153 19.9633 31.2153 15.103 26.3366L7.14117 18.3542C6.67219 17.8859 6.67219 17.1236 7.14117 16.6445L15.0924 8.67297C19.9526 3.79423 27.8399 3.79423 32.7001 8.67297C37.5711 13.5517 37.5711 21.4579 32.7108 26.3366Z" fill="#4FC4F9"/>
<path d="M49.444 16.3504L44.6796 11.4826C44.3918 11.1885 43.9122 11.4608 44.0081 11.8637C44.8288 15.5772 44.8288 19.4541 44.0081 23.1676C43.9229 23.5705 44.4025 23.8319 44.6796 23.5487L49.444 18.6809C50.0728 18.0275 50.0728 16.9929 49.444 16.3504Z" fill="#4FC4F9"/>
<path d="M23.9598 26.0426C28.5689 26.0426 32.3053 22.225 32.3053 17.5157C32.3053 12.8065 28.5689 8.98883 23.9598 8.98883C19.3506 8.98883 15.6142 12.8065 15.6142 17.5157C15.6142 22.225 19.3506 26.0426 23.9598 26.0426Z" fill="#4FC4F9"/>
</svg>
