<svg width="33" height="32" viewBox="0 0 33 32" fill="none" xmlns="http://www.w3.org/2000/svg">
<path d="M12.1212 0H2C0.895431 0 0 0.895428 0 2V12.4444H3.71717C3.71717 7.80302 6.58721 3.23232 12.1212 3.23232V0Z" fill="#F34E1E"/>
<path d="M17.1313 32H2C0.89543 32 0 31.1046 0 30L0 15.3535H5.65657C5.65657 23.7576 5.0101 27.6364 17.1313 27.6364V32Z" fill="#FEC531"/>
<path d="M32.1616 16.9697C21.8182 16.9697 15.1919 12.7273 15.1919 2.3251e-06L30.1616 2.74029e-07C31.2662 1.22687e-07 32.1616 0.895431 32.1616 2L32.1616 16.9697Z" fill="#1AABFD"/>
<path d="M32 19.7172C26.3434 19.7172 19.8788 26.6667 19.8788 32L30 32C31.1046 32 32 31.1046 32 30L32 19.7172Z" fill="#0ACE82"/>
<ellipse cx="10.0202" cy="10.3434" rx="1.93939" ry="1.93939" fill="black"/>
</svg>
