<svg width="31" height="30" viewBox="0 0 31 30" fill="none" xmlns="http://www.w3.org/2000/svg">
<path fill-rule="evenodd" clip-rule="evenodd" d="M15.3794 -0.000488281C6.88229 -0.000488281 0 6.8818 0 15.3789C0 22.1843 4.40236 27.9324 10.5157 29.9701C11.2846 30.1047 11.573 29.6433 11.573 29.2396C11.573 28.8743 11.5538 27.6632 11.5538 26.3752C7.6897 27.0865 6.69004 25.4332 6.38245 24.5681C6.20944 24.126 5.45969 22.761 4.80607 22.3958C4.26779 22.1074 3.49882 21.3961 4.78684 21.3769C5.99797 21.3577 6.86306 22.4919 7.15142 22.9533C8.53557 25.2794 10.7464 24.6258 11.6307 24.2221C11.7652 23.2224 12.169 22.5496 12.6111 22.1651C9.1892 21.7806 5.61348 20.4541 5.61348 14.5715C5.61348 12.899 6.20944 11.5148 7.18987 10.4383C7.03608 10.0538 6.4978 8.47741 7.34367 6.36274C7.34367 6.36274 8.63169 5.95903 11.573 7.93913C12.8034 7.59309 14.1106 7.42008 15.4179 7.42008C16.7251 7.42008 18.0324 7.59309 19.2627 7.93913C22.204 5.93981 23.492 6.36274 23.492 6.36274C24.3379 8.47741 23.7996 10.0538 23.6458 10.4383C24.6263 11.5148 25.2222 12.8798 25.2222 14.5715C25.2222 20.4733 21.6273 21.7806 18.2054 22.1651C18.7629 22.6457 19.2435 23.5685 19.2435 25.0103C19.2435 27.0673 19.2243 28.7206 19.2243 29.2396C19.2243 29.6433 19.5126 30.1239 20.2816 29.9701C26.3565 27.9324 30.7588 22.1651 30.7588 15.3789C30.7588 6.8818 23.8765 -0.000488281 15.3794 -0.000488281Z" fill="white"/>
</svg>
