<svg width="30" height="30" viewBox="0 0 30 30" fill="none" xmlns="http://www.w3.org/2000/svg">
<path fill-rule="evenodd" clip-rule="evenodd" d="M25.23 5.17201C27.0281 5.27326 27.9112 5.53951 28.725 6.98701C29.5725 8.43264 30 10.9226 30 15.3083V15.3139V15.3233C30 19.6883 29.5725 22.197 28.7269 23.6276C27.9131 25.0751 27.03 25.3376 25.2319 25.4595C23.4337 25.5626 18.9169 25.6245 15.0037 25.6245C11.0831 25.6245 6.56437 25.5626 4.76813 25.4576C2.97375 25.3358 2.09063 25.0733 1.26937 23.6258C0.43125 22.1951 0 19.6864 0 15.3214V15.3176V15.312V15.3064C0 10.9226 0.43125 8.43264 1.26937 6.98701C2.09063 5.53764 2.97563 5.27326 4.77 5.17014C6.56437 5.05014 11.0831 4.99951 15.0037 4.99951C18.9169 4.99951 23.4338 5.05014 25.23 5.17201ZM20.625 15.312L11.25 9.68701V20.937L20.625 15.312Z" fill="white"/>
</svg>
