<svg xmlns="http://www.w3.org/2000/svg" viewBox="0 0 1000 1000">
  <defs>
    <style>.cls-1{fill:#4fc4f9;}</style>
  </defs>
  <path class="cls-1" d="M665.31,311.43c-106.06-104.12-278-104.13-384.09,0L107.69,481.71a25.42,25.42,0,0,0,0,36.42L281.13,688.51c106.05,104.17,278,104.21,384.16.09h0c106.11-104.14,106.13-273,0-377.16ZM624.16,638.55h0c-77.95,76.5-204.31,76.47-282.22-.07L214.52,513.32a18.68,18.68,0,0,1,0-26.76L342,361.45c77.93-76.48,204.25-76.47,282.17,0h0A193.37,193.37,0,0,1,624.16,638.55Z"/>
  <path class="cls-1" d="M892.46,481.88l-76.3-76.35c-4.54-4.54-12.26-.36-10.85,5.89a400.87,400.87,0,0,1,0,177.31c-1.42,6.25,6.31,10.43,10.84,5.9l76.35-76.33A25.75,25.75,0,0,0,892.46,481.88Z"/>
  <circle class="cls-1" cx="484" cy="500.08" r="133.67"/>
</svg>