<svg width="30" height="30" viewBox="0 0 30 30" fill="none" xmlns="http://www.w3.org/2000/svg">
<path d="M30 5.38514C28.8844 5.87451 27.6956 6.19889 26.4563 6.35639C27.7313 5.59514 28.7044 4.39889 29.1619 2.95701C27.9731 3.66576 26.6606 4.16639 25.2619 4.44576C24.1331 3.24389 22.5244 2.49951 20.7694 2.49951C17.3644 2.49951 14.6231 5.26326 14.6231 8.65139C14.6231 9.13889 14.6644 9.60764 14.7656 10.0539C9.6525 9.80451 5.12813 7.35389 2.08875 3.62076C1.55813 4.54139 1.24688 5.59514 1.24688 6.72951C1.24688 8.85951 2.34375 10.7476 3.97875 11.8408C2.99063 11.822 2.02125 11.5351 1.2 11.0833C1.2 11.102 1.2 11.1264 1.2 11.1508C1.2 14.1395 3.33187 16.622 6.1275 17.1939C5.62687 17.3308 5.08125 17.3964 4.515 17.3964C4.12125 17.3964 3.72375 17.3739 3.35063 17.2914C4.1475 19.727 6.40875 21.5176 9.0975 21.5758C7.005 23.2126 4.34812 24.1989 1.47187 24.1989C0.9675 24.1989 0.48375 24.1764 0 24.1145C2.72438 25.8714 5.95312 26.8745 9.435 26.8745C20.7525 26.8745 26.94 17.4995 26.94 9.37326C26.94 9.10139 26.9306 8.83889 26.9175 8.57826C28.1381 7.71201 29.1637 6.63014 30 5.38514Z" fill="white"/>
</svg>
